<mxfile host="65bd71144e">
    <diagram id="AFB7giY2CppGXmA1lDLM" name="第 1 页">
        <mxGraphModel dx="890" dy="451" grid="1" gridSize="10" guides="1" tooltips="1" connect="1" arrows="1" fold="1" page="1" pageScale="1" pageWidth="200" pageHeight="500" math="0" shadow="0">
            <root>
                <mxCell id="0"/>
                <mxCell id="1" parent="0"/>
                <mxCell id="2" value="" style="ellipse;whiteSpace=wrap;html=1;aspect=fixed;" parent="1" vertex="1">
                    <mxGeometry x="40" y="200" width="80" height="80" as="geometry"/>
                </mxCell>
                <mxCell id="3" value="" style="ellipse;whiteSpace=wrap;html=1;aspect=fixed;" parent="1" vertex="1">
                    <mxGeometry x="400" y="360" width="80" height="80" as="geometry"/>
                </mxCell>
                <mxCell id="4" value="" style="ellipse;whiteSpace=wrap;html=1;aspect=fixed;" parent="1" vertex="1">
                    <mxGeometry x="400" y="40" width="80" height="80" as="geometry"/>
                </mxCell>
                <mxCell id="5" value="" style="ellipse;whiteSpace=wrap;html=1;aspect=fixed;" parent="1" vertex="1">
                    <mxGeometry x="200" y="360" width="80" height="80" as="geometry"/>
                </mxCell>
                <mxCell id="6" value="" style="ellipse;whiteSpace=wrap;html=1;aspect=fixed;" parent="1" vertex="1">
                    <mxGeometry x="200" y="40" width="80" height="80" as="geometry"/>
                </mxCell>
                <mxCell id="7" value="" style="endArrow=classic;html=1;entryX=0;entryY=1;entryDx=0;entryDy=0;" parent="1" target="6" edge="1">
                    <mxGeometry width="50" height="50" relative="1" as="geometry">
                        <mxPoint x="110" y="210" as="sourcePoint"/>
                        <mxPoint x="160" y="160" as="targetPoint"/>
                    </mxGeometry>
                </mxCell>
                <mxCell id="10" value="" style="endArrow=classic;html=1;entryX=0;entryY=0;entryDx=0;entryDy=0;exitX=1;exitY=1;exitDx=0;exitDy=0;" parent="1" source="2" target="5" edge="1">
                    <mxGeometry width="50" height="50" relative="1" as="geometry">
                        <mxPoint x="120" y="280" as="sourcePoint"/>
                        <mxPoint x="200" y="330" as="targetPoint"/>
                        <Array as="points"/>
                    </mxGeometry>
                </mxCell>
                <mxCell id="11" value="" style="endArrow=classic;html=1;entryX=0;entryY=0.5;entryDx=0;entryDy=0;" parent="1" target="4" edge="1">
                    <mxGeometry width="50" height="50" relative="1" as="geometry">
                        <mxPoint x="280" y="80" as="sourcePoint"/>
                        <mxPoint x="330" y="30" as="targetPoint"/>
                    </mxGeometry>
                </mxCell>
                <mxCell id="12" value="" style="endArrow=classic;html=1;entryX=0;entryY=0.5;entryDx=0;entryDy=0;" parent="1" target="3" edge="1">
                    <mxGeometry width="50" height="50" relative="1" as="geometry">
                        <mxPoint x="280" y="400" as="sourcePoint"/>
                        <mxPoint x="330" y="350" as="targetPoint"/>
                    </mxGeometry>
                </mxCell>
                <mxCell id="13" value="" style="endArrow=classic;html=1;entryX=0.042;entryY=0.744;entryDx=0;entryDy=0;entryPerimeter=0;exitX=0.651;exitY=0.008;exitDx=0;exitDy=0;exitPerimeter=0;" parent="1" source="5" target="4" edge="1">
                    <mxGeometry width="50" height="50" relative="1" as="geometry">
                        <mxPoint x="250" y="360" as="sourcePoint"/>
                        <mxPoint x="290" y="310" as="targetPoint"/>
                        <Array as="points">
                            <mxPoint x="270" y="330"/>
                        </Array>
                    </mxGeometry>
                </mxCell>
                <mxCell id="14" value="" style="endArrow=classic;html=1;entryX=0.5;entryY=0;entryDx=0;entryDy=0;" parent="1" target="5" edge="1">
                    <mxGeometry width="50" height="50" relative="1" as="geometry">
                        <mxPoint x="239.5" y="120" as="sourcePoint"/>
                        <mxPoint x="239.5" y="190" as="targetPoint"/>
                    </mxGeometry>
                </mxCell>
                <mxCell id="15" value="" style="endArrow=classic;html=1;entryX=1;entryY=0;entryDx=0;entryDy=0;exitX=0.263;exitY=0.924;exitDx=0;exitDy=0;exitPerimeter=0;" parent="1" source="4" target="5" edge="1">
                    <mxGeometry width="50" height="50" relative="1" as="geometry">
                        <mxPoint x="430" y="120" as="sourcePoint"/>
                        <mxPoint x="350" y="190" as="targetPoint"/>
                    </mxGeometry>
                </mxCell>
                <mxCell id="16" value="" style="endArrow=classic;html=1;exitX=0.5;exitY=1;exitDx=0;exitDy=0;" parent="1" source="4" target="3" edge="1">
                    <mxGeometry width="50" height="50" relative="1" as="geometry">
                        <mxPoint x="439.5" y="160" as="sourcePoint"/>
                        <mxPoint x="439.5" y="290" as="targetPoint"/>
                        <Array as="points">
                            <mxPoint x="439.5" y="200"/>
                        </Array>
                    </mxGeometry>
                </mxCell>
                <mxCell id="18" value="A" style="text;html=1;resizable=0;autosize=1;align=center;verticalAlign=middle;points=[];fillColor=none;strokeColor=none;rounded=0;fontSize=25;" parent="1" vertex="1">
                    <mxGeometry x="65" y="220" width="30" height="40" as="geometry"/>
                </mxCell>
                <mxCell id="19" value="B" style="text;html=1;resizable=0;autosize=1;align=center;verticalAlign=middle;points=[];fillColor=none;strokeColor=none;rounded=0;fontSize=25;" parent="1" vertex="1">
                    <mxGeometry x="225" y="60" width="30" height="40" as="geometry"/>
                </mxCell>
                <mxCell id="20" value="C" style="text;html=1;resizable=0;autosize=1;align=center;verticalAlign=middle;points=[];fillColor=none;strokeColor=none;rounded=0;fontSize=25;" parent="1" vertex="1">
                    <mxGeometry x="225" y="380" width="30" height="40" as="geometry"/>
                </mxCell>
                <mxCell id="21" value="&lt;font style=&quot;font-size: 25px&quot;&gt;D&lt;/font&gt;" style="text;html=1;resizable=0;autosize=1;align=center;verticalAlign=middle;points=[];fillColor=none;strokeColor=none;rounded=0;" parent="1" vertex="1">
                    <mxGeometry x="425" y="70" width="30" height="20" as="geometry"/>
                </mxCell>
                <mxCell id="22" value="E" style="text;html=1;resizable=0;autosize=1;align=center;verticalAlign=middle;points=[];fillColor=none;strokeColor=none;rounded=0;fontSize=25;" parent="1" vertex="1">
                    <mxGeometry x="425" y="380" width="30" height="40" as="geometry"/>
                </mxCell>
                <mxCell id="23" value="2" style="text;html=1;resizable=0;autosize=1;align=center;verticalAlign=middle;points=[];fillColor=#d80073;strokeColor=#A50040;rounded=0;fontSize=25;fontColor=#ffffff;" parent="1" vertex="1">
                    <mxGeometry x="135" y="130" width="30" height="40" as="geometry"/>
                </mxCell>
                <mxCell id="24" value="5" style="text;html=1;resizable=0;autosize=1;align=center;verticalAlign=middle;points=[];fillColor=#d80073;strokeColor=#A50040;rounded=0;fontSize=25;fontColor=#ffffff;" parent="1" vertex="1">
                    <mxGeometry x="135" y="310" width="30" height="40" as="geometry"/>
                </mxCell>
                <mxCell id="25" value="2" style="text;html=1;resizable=0;autosize=1;align=center;verticalAlign=middle;points=[];fillColor=#d80073;strokeColor=#A50040;rounded=0;fontSize=25;fontColor=#ffffff;" parent="1" vertex="1">
                    <mxGeometry x="200" y="220" width="30" height="40" as="geometry"/>
                </mxCell>
                <mxCell id="26" value="6" style="text;html=1;resizable=0;autosize=1;align=center;verticalAlign=middle;points=[];fillColor=#d80073;strokeColor=#A50040;rounded=0;fontSize=25;fontColor=#ffffff;" parent="1" vertex="1">
                    <mxGeometry x="330" y="40" width="30" height="40" as="geometry"/>
                </mxCell>
                <mxCell id="27" value="7" style="text;html=1;resizable=0;autosize=1;align=center;verticalAlign=middle;points=[];fillColor=#d80073;strokeColor=#A50040;rounded=0;fontSize=25;fontColor=#ffffff;" parent="1" vertex="1">
                    <mxGeometry x="295" y="210" width="30" height="40" as="geometry"/>
                </mxCell>
                <mxCell id="28" value="2" style="text;html=1;resizable=0;autosize=1;align=center;verticalAlign=middle;points=[];fillColor=#d80073;strokeColor=#A50040;rounded=0;fontSize=25;fontColor=#ffffff;" parent="1" vertex="1">
                    <mxGeometry x="345" y="230" width="30" height="40" as="geometry"/>
                </mxCell>
                <mxCell id="29" value="1" style="text;html=1;resizable=0;autosize=1;align=center;verticalAlign=middle;points=[];fillColor=#d80073;strokeColor=#A50040;rounded=0;fontSize=25;fontColor=#ffffff;" parent="1" vertex="1">
                    <mxGeometry x="330" y="400" width="30" height="40" as="geometry"/>
                </mxCell>
                <mxCell id="30" value="4" style="text;html=1;resizable=0;autosize=1;align=center;verticalAlign=middle;points=[];fillColor=#d80073;strokeColor=#A50040;rounded=0;fontSize=25;fontColor=#ffffff;" parent="1" vertex="1">
                    <mxGeometry x="437" y="230" width="30" height="40" as="geometry"/>
                </mxCell>
            </root>
        </mxGraphModel>
    </diagram>
</mxfile>